<svg id="Capa_1" enable-background="new 0 0 510 510" height="512" viewBox="0 0 510 510" width="512" xmlns="http://www.w3.org/2000/svg"><g><path d="m378.734 354.202h30v79.065h-30z" fill="#00959a" transform="matrix(.707 -.707 .707 .707 -163.09 393.734)"/><path d="m96.695 73.943h30v75.504h-30z" fill="#00ccb2" transform="matrix(.707 -.707 .707 .707 -46.266 111.695)"/><path d="m240 418.255h15v66.745h-15z" fill="#00ccb2"/><path d="m255 418.255h15v66.745h-15z" fill="#00959a"/><path d="m240 25h15v66.745h-15z" fill="#00ccb2"/><path d="m255 25h15v66.745h-15z" fill="#00959a"/><path d="m73.943 383.305h75.504v30h-75.504z" fill="#00ccb2" transform="matrix(.707 -.707 .707 .707 -248.93 195.641)"/><path d="m354.202 101.266h79.065v30h-79.065z" fill="#00959a" transform="matrix(.707 -.707 .707 .707 33.109 312.466)"/><path d="m412.424 240h72.576v30h-72.576z" fill="#00959a"/><path d="m25 240h72.576v30h-72.576z" fill="#00ccb2"/><path d="m427.42 255c0 95.08-77.34 172.42-172.42 172.42v-344.84c95.08 0 172.42 77.34 172.42 172.42z" fill="#00b5bc"/><path d="m255 82.58v344.84c-95.08 0-172.42-77.34-172.42-172.42s77.34-172.42 172.42-172.42z" fill="#00eecf"/><path d="m240 240h15v30h-15z" fill="#00ccb2"/><path d="m255 240h15v30h-15z" fill="#00959a"/><path d="m330 240h30v30h-30z" fill="#00959a"/><path d="m195 315h30v30h-30z" fill="#00ccb2"/><path d="m285 315h30v30h-30z" fill="#00959a"/><path d="m195 170h30v30h-30z" fill="#00ccb2"/><path d="m285 170h30v30h-30z" fill="#00959a"/><path d="m150 240h30v30h-30z" fill="#00ccb2"/><path d="m37.581 67.932h90.702v30h-90.702z" fill="#00eecf" transform="matrix(.707 -.707 .707 .707 -34.352 82.932)"/><path d="m381.717 412.068h90.702v30h-90.702z" fill="#00b5bc" transform="matrix(.707 -.707 .707 .707 -176.897 427.068)"/><path d="m209.649 0h45.351v30h-45.351z" fill="#00eecf"/><path d="m255 0h45.351v30h-45.351z" fill="#00b5bc"/><path d="m209.649 480h45.351v30h-45.351z" fill="#00eecf"/><path d="m255 480h45.351v30h-45.351z" fill="#00b5bc"/><path d="m412.068 37.581h30v90.702h-30z" fill="#00b5bc" transform="matrix(.707 -.707 .707 .707 66.443 326.273)"/><path d="m67.932 381.717h30v90.702h-30z" fill="#00eecf" transform="matrix(.707 -.707 .707 .707 -277.692 183.727)"/><path d="m0 209.649h30v90.701h-30z" fill="#00eecf"/><path d="m480 209.649h30v90.701h-30z" fill="#00b5bc"/></g></svg>